<?xml version="1.0" encoding="utf-8"?>
<!-- Generator: Adobe Illustrator 15.1.0, SVG Export Plug-In . SVG Version: 6.00 Build 0)  -->
<!DOCTYPE svg PUBLIC "-//W3C//DTD SVG 1.1//EN" "http://www.w3.org/Graphics/SVG/1.1/DTD/svg11.dtd">
<svg version="1.1" id="Layer_1" xmlns="http://www.w3.org/2000/svg" xmlns:xlink="http://www.w3.org/1999/xlink" x="0px" y="0px"
	 width="25px" height="25px" viewBox="0 0 25 25" enable-background="new 0 0 25 25" xml:space="preserve">
<g>
	<path fill="#FFFFFF" d="M17.491,0.311H7.509c-3.819,0-6.943,3.124-6.943,6.944v10.636c0,3.819,3.124,6.944,6.943,6.944h9.982
		c3.818,0,6.943-3.125,6.943-6.944V7.254C24.435,3.435,21.31,0.311,17.491,0.311z M22.601,17.891c0,1.357-0.533,2.639-1.504,3.606
		c-0.967,0.969-2.248,1.504-3.605,1.504H7.509c-1.356,0-2.637-0.535-3.606-1.504C2.934,20.529,2.4,19.248,2.4,17.891V7.254
		c0-1.357,0.533-2.638,1.502-3.607c0.969-0.969,2.25-1.502,3.606-1.502h9.982c1.042,0,2.036,0.32,2.88,0.904
		c-0.288-0.105-0.595-0.172-0.919-0.172c-1.485,0-2.691,1.204-2.691,2.69c0,0.356,0.073,0.694,0.198,1.005
		c-1.233-0.925-2.761-1.48-4.422-1.48c-4.08,0-7.386,3.307-7.386,7.386c0,4.08,3.307,7.386,7.386,7.386
		c4.079,0,7.387-3.307,7.387-7.386c0-1.66-0.555-3.187-1.479-4.42c0.312,0.126,0.65,0.199,1.007,0.199
		c1.484,0,2.688-1.203,2.688-2.689c0-0.167-0.02-0.33-0.049-0.489c0.322,0.676,0.51,1.41,0.51,2.176V17.891z M17.338,12.483
		c0,2.673-2.166,4.838-4.837,4.838s-4.836-2.165-4.836-4.838c0-2.67,2.166-4.836,4.836-4.836S17.338,9.813,17.338,12.483z"/>
</g>
</svg>
