<?xml version="1.0" encoding="utf-8"?>
<!-- Generator: Adobe Illustrator 15.1.0, SVG Export Plug-In . SVG Version: 6.00 Build 0)  -->
<!DOCTYPE svg PUBLIC "-//W3C//DTD SVG 1.1//EN" "http://www.w3.org/Graphics/SVG/1.1/DTD/svg11.dtd">
<svg version="1.1" id="Layer_1" xmlns="http://www.w3.org/2000/svg" xmlns:xlink="http://www.w3.org/1999/xlink" x="0px" y="0px"
	 width="25px" height="20.93px" viewBox="0 0 25 20.93" enable-background="new 0 0 25 20.93" xml:space="preserve">
<path fill="#FFFFFF" d="M24.83,2.783c-0.906,0.401-1.883,0.674-2.906,0.797c1.045-0.626,1.848-1.618,2.227-2.8
	c-0.979,0.58-2.062,1.001-3.213,1.229c-0.924-0.984-2.24-1.599-3.693-1.599c-2.795,0-5.061,2.267-5.061,5.06
	c0,0.396,0.046,0.783,0.132,1.153C8.109,6.412,4.381,4.398,1.885,1.336C1.45,2.084,1.201,2.952,1.201,3.88
	c0,1.756,0.893,3.304,2.251,4.212C2.623,8.065,1.841,7.837,1.16,7.459c0,0.021,0,0.043,0,0.063c0,2.451,1.743,4.496,4.059,4.962
	c-0.425,0.113-0.872,0.176-1.333,0.176c-0.326,0-0.645-0.031-0.952-0.09c0.644,2.008,2.513,3.473,4.727,3.514
	c-1.732,1.357-3.914,2.164-6.284,2.164c-0.409,0-0.811-0.021-1.208-0.068c2.24,1.436,4.899,2.273,7.757,2.273
	c9.308,0,14.398-7.711,14.398-14.397c0-0.22-0.008-0.438-0.018-0.654C23.295,4.689,24.152,3.798,24.83,2.783z"/>
<path fill="#FFFFFF" d="M129.454,59.661V13.372h-11.812V-3.293h11.812c0,0,0-6.83,0-14.235c0-11.187,6.979-21.458,23.057-21.458
	c6.511,0,11.325,0.646,11.325,0.646l-0.38,15.562c0,0-4.91-0.049-10.268-0.049c-5.797,0-6.726,2.769-6.726,7.363
	c0,3.633,0-7.743,0,12.17h17.454l-0.76,16.665h-16.694v46.289H129.454z"/>
</svg>
